<svg width="31" height="29" viewBox="0 0 31 29" fill="none" xmlns="http://www.w3.org/2000/svg">
<path d="M25.4159 6.49865H21.7982V4.99842C21.7982 3.61922 20.6384 2.49805 19.214 2.49805H5.77652C4.35214 2.49805 3.19238 3.61922 3.19238 4.99842V20.8548C3.19238 21.4629 3.53659 22.021 4.09166 22.308C4.34491 22.439 4.62089 22.503 4.89688 22.503C5.22661 22.503 5.55532 22.41 5.8406 22.227L9.39431 19.9347V23.5012H21.1252L25.3519 26.2286C25.6371 26.4126 25.9658 26.5047 26.2956 26.5047C26.5716 26.5047 26.8476 26.4406 27.1008 26.3096C27.6559 26.0226 28.0001 25.4645 28.0001 24.8564V8.99902C28.0001 7.61982 26.8403 6.49865 25.4159 6.49865ZM5.26693 21.3959C5.05916 21.5319 4.80178 21.5429 4.57955 21.4269C4.35834 21.3129 4.22604 21.0988 4.22604 20.8558V4.99842C4.22604 4.1713 4.92169 3.4982 5.77652 3.4982H19.214C20.0688 3.4982 20.7645 4.1713 20.7645 4.99842V18.5004H9.75505L5.26693 21.3959ZM26.9664 24.8564C26.9664 25.0994 26.8341 25.3135 26.6129 25.4275C26.3907 25.5425 26.1354 25.5315 25.9255 25.3965L21.4384 22.501H10.428V19.5006H21.7982V7.4988H25.4159C26.2708 7.4988 26.9664 8.1719 26.9664 8.99902V24.8564Z" fill="#6B38B2"/>
</svg>
