<svg width="24" height="24" viewBox="0 0 24 24" fill="none" xmlns="http://www.w3.org/2000/svg">
<g clip-path="url(#clip0_1_12991)">
<path d="M6.47392 1.11308C6.53894 1.11298 6.60395 1.11283 6.66897 1.11264C6.8461 1.11225 7.02322 1.11244 7.20035 1.11273C7.39198 1.11295 7.5836 1.11262 7.77523 1.11236C8.15003 1.11194 8.52484 1.11203 8.89964 1.1123C9.20441 1.11252 9.50918 1.11254 9.81395 1.11244C9.85741 1.11243 9.90087 1.11241 9.94565 1.1124C10.034 1.11237 10.1223 1.11234 10.2106 1.11231C11.0376 1.11204 11.8647 1.11235 12.6918 1.11285C13.4006 1.11327 14.1094 1.1132 14.8183 1.11277C15.6424 1.11226 16.4666 1.11207 17.2907 1.11235C17.3787 1.11238 17.4667 1.11241 17.5547 1.11244C17.5979 1.11246 17.6412 1.11247 17.6858 1.11249C17.99 1.11257 18.2942 1.11243 18.5984 1.11221C18.9694 1.11195 19.3404 1.11202 19.7114 1.11252C19.9005 1.11276 20.0896 1.11286 20.2787 1.11255C20.4522 1.11227 20.6256 1.11243 20.7991 1.11292C20.8908 1.11308 20.9825 1.11277 21.0742 1.11245C21.9581 1.11633 22.6192 1.29541 23.2792 1.89257C23.7523 2.41542 24.0052 2.9237 24.009 3.63591C24.0094 3.6758 24.0098 3.7157 24.0102 3.7568C24.0113 3.88832 24.0121 4.01983 24.0128 4.15136C24.0131 4.21886 24.0131 4.21886 24.0135 4.28772C24.0148 4.52567 24.0157 4.76361 24.0164 5.00156C24.017 5.19844 24.0183 5.3953 24.0202 5.59217C24.0225 5.83011 24.0237 6.06804 24.024 6.306C24.0243 6.39661 24.025 6.48721 24.0262 6.57781C24.0276 6.7045 24.0276 6.83111 24.0273 6.95781C24.0281 6.99517 24.0288 7.03253 24.0296 7.07103C24.0277 7.24621 24.0111 7.34425 23.906 7.48634C23.7255 7.6244 23.5828 7.62528 23.3646 7.62035C23.3049 7.6204 23.3049 7.6204 23.244 7.62045C23.1128 7.62029 22.9817 7.61846 22.8506 7.61663C22.7595 7.61619 22.6684 7.61585 22.5773 7.61562C22.3379 7.61473 22.0984 7.61243 21.859 7.60983C21.6146 7.60743 21.3701 7.60636 21.1257 7.60518C20.6462 7.60267 20.1668 7.59867 19.6874 7.59374C19.6875 7.61974 19.6876 7.64574 19.6877 7.67252C19.6919 9.21597 19.6951 10.7594 19.697 12.3029C19.6973 12.4885 19.6975 12.6741 19.6977 12.8597C19.6978 12.8967 19.6978 12.9336 19.6979 12.9717C19.6987 13.5688 19.7002 14.1659 19.7019 14.763C19.7037 15.3764 19.7047 15.9898 19.7051 16.6032C19.7053 16.9812 19.7062 17.3592 19.7077 17.7372C19.7088 18.0278 19.7089 18.3184 19.7087 18.6091C19.7087 18.7277 19.7091 18.8464 19.7098 18.9651C19.7161 20.052 19.5931 21.0184 18.8129 21.8368C17.6987 22.949 16.4046 22.882 14.9406 22.8825C14.8124 22.8827 14.6842 22.883 14.556 22.8832C14.2097 22.8839 13.8634 22.8842 13.517 22.8844C13.3003 22.8845 13.0836 22.8847 12.8669 22.8849C12.2653 22.8855 11.6637 22.886 11.0621 22.8861C11.0237 22.8861 10.9854 22.8861 10.9459 22.8862C10.9074 22.8862 10.869 22.8862 10.8294 22.8862C10.7515 22.8862 10.6736 22.8862 10.5957 22.8862C10.5378 22.8863 10.5378 22.8863 10.4786 22.8863C9.85235 22.8865 9.22606 22.8873 8.59976 22.8884C7.95478 22.8895 7.3098 22.8901 6.66482 22.8901C6.30347 22.8902 5.94212 22.8904 5.58077 22.8913C5.27325 22.892 4.96573 22.8922 4.65821 22.8919C4.50166 22.8917 4.34512 22.8918 4.18856 22.8924C2.92816 22.8968 1.86731 22.7653 0.906869 21.8642C0.256707 21.1892 -0.0227345 20.3638 -0.0203769 19.4399C-0.0206226 19.3829 -0.0208683 19.3259 -0.0211215 19.2671C-0.0214204 19.1477 -0.0213624 19.0283 -0.0209606 18.9088C-0.0205582 18.7257 -0.0219183 18.5427 -0.0233982 18.3596C-0.0234736 18.2432 -0.0234468 18.1267 -0.0233066 18.0102C-0.0238332 17.9556 -0.0243598 17.9009 -0.0249023 17.8445C-0.0244626 17.7938 -0.0240229 17.7431 -0.0235698 17.6908C-0.023562 17.6463 -0.0235542 17.6018 -0.0235462 17.5559C0.00701947 17.4018 0.0662722 17.3469 0.187448 17.25C0.343508 17.198 0.459336 17.1975 0.623731 17.1978C0.684721 17.1978 0.745711 17.1978 0.808549 17.1978C0.875136 17.198 0.941723 17.1983 1.00831 17.1985C1.07642 17.1986 1.14453 17.1987 1.21264 17.1987C1.39181 17.1989 1.57098 17.1994 1.75014 17.1999C1.96517 17.2005 2.18019 17.2007 2.39522 17.2009C2.7218 17.2014 3.04837 17.2023 3.37495 17.2031C3.37481 17.1375 3.37481 17.1375 3.37467 17.0705C3.37188 15.5533 3.38129 14.0362 3.39216 12.5191C3.39262 12.4546 3.39308 12.3901 3.39354 12.3256C3.39786 11.7217 3.40224 11.1177 3.40676 10.5137C3.40779 10.3759 3.40882 10.2381 3.40985 10.1003C3.41011 10.066 3.41036 10.0318 3.41063 9.99654C3.41479 9.43795 3.41859 8.87935 3.42226 8.32075C3.42606 7.74289 3.43019 7.16504 3.43466 6.58719C3.43714 6.26443 3.43947 5.94167 3.44142 5.6189C3.44325 5.31666 3.44553 5.01442 3.44812 4.71218C3.44899 4.60168 3.44971 4.49118 3.45027 4.38067C3.45532 3.40399 3.48165 2.57898 4.20075 1.83672C4.86806 1.2252 5.5937 1.10998 6.47392 1.11308ZM4.6728 2.54589C4.43756 2.83994 4.30917 3.18794 4.30324 3.56265C4.30239 3.60999 4.30154 3.65734 4.30066 3.70612C4.29996 3.75784 4.29926 3.80955 4.29854 3.86284C4.29764 3.91754 4.29674 3.97223 4.29581 4.02859C4.29339 4.17923 4.29117 4.32988 4.28907 4.48053C4.28772 4.5762 4.28629 4.67187 4.28483 4.76754C4.26337 6.17626 4.25111 7.58504 4.24132 8.99389C4.23973 9.22131 4.23798 9.44874 4.23615 9.67616C4.21599 12.1851 4.21642 14.6941 4.2187 17.2031C4.26656 17.2033 4.31441 17.2034 4.36372 17.2036C5.52757 17.2074 6.69142 17.2117 7.85526 17.2166C8.41809 17.2189 8.98091 17.2211 9.54374 17.2229C10.0342 17.2244 10.5247 17.2263 11.0152 17.2286C11.275 17.2297 11.5347 17.2308 11.7945 17.2314C12.0389 17.232 12.2834 17.233 12.5278 17.2344C12.6176 17.2348 12.7073 17.2351 12.7971 17.2352C12.9196 17.2353 13.042 17.2361 13.1645 17.2369C13.2001 17.2368 13.2357 17.2368 13.2724 17.2367C13.4618 17.2387 13.6126 17.2545 13.7812 17.3437C13.8777 17.4794 13.8868 17.5958 13.8877 17.7595C13.8884 17.8274 13.8884 17.8274 13.8891 17.8966C13.8892 17.9453 13.8893 17.994 13.8894 18.0441C13.8906 18.148 13.8918 18.2518 13.893 18.3557C13.8943 18.5188 13.8955 18.6819 13.8963 18.845C13.8974 19.0029 13.8992 19.1607 13.9011 19.3185C13.9011 19.3906 13.9011 19.3906 13.9011 19.464C13.9107 20.1701 14.1614 20.8054 14.6528 21.3164C15.1942 21.8226 15.8264 22.0488 16.5611 22.0411C17.2194 22.0035 17.7847 21.7121 18.2343 21.2344C18.7948 20.5552 18.9054 19.8595 18.9024 19.0008C18.9025 18.933 18.9026 18.8653 18.9028 18.7975C18.9032 18.6128 18.903 18.4281 18.9027 18.2434C18.9025 18.0436 18.9028 17.8439 18.9031 17.6441C18.9035 17.2983 18.9035 16.9526 18.9034 16.6068C18.9033 16.1063 18.9038 15.6058 18.9046 15.1053C18.9058 14.2924 18.9067 13.4794 18.9074 12.6664C18.9074 12.6178 18.9074 12.5692 18.9075 12.5192C18.908 11.8293 18.9083 11.1394 18.9084 10.4495C18.9084 10.401 18.9084 10.3524 18.9084 10.3023C18.9084 10.2537 18.9084 10.2052 18.9085 10.1552C18.9086 9.34516 18.9095 8.53513 18.911 7.72511C18.9119 7.22599 18.9122 6.72688 18.9117 6.22777C18.9114 5.88572 18.9118 5.54368 18.9127 5.20163C18.9132 5.00447 18.9134 4.80732 18.9127 4.61016C18.9122 4.42938 18.9125 4.24863 18.9134 4.06785C18.9137 3.97211 18.9131 3.87637 18.9125 3.78063C18.9165 3.29072 19.0222 2.86673 19.2685 2.44042C19.3027 2.38033 19.3027 2.38033 19.3375 2.31902C19.4069 2.20199 19.4768 2.08535 19.5468 1.96874C17.7932 1.96552 16.0395 1.96304 14.2859 1.96156C14.0788 1.96138 13.8717 1.9612 13.6646 1.96101C13.6027 1.96096 13.6027 1.96096 13.5396 1.9609C12.8723 1.96029 12.205 1.95918 11.5377 1.95789C10.8528 1.95657 10.1679 1.95579 9.48302 1.95551C9.06053 1.95531 8.63804 1.95471 8.21554 1.95356C7.92568 1.95282 7.63582 1.95259 7.34596 1.95278C7.17881 1.95287 7.01168 1.95273 6.84453 1.95197C6.66303 1.95116 6.48154 1.95144 6.30004 1.95183C6.2476 1.95142 6.19516 1.95101 6.14113 1.95059C5.56092 1.95389 5.07408 2.11243 4.6728 2.54589ZM20.1906 2.49663C19.8242 2.92888 19.6811 3.37081 19.6821 3.93389C19.6821 3.96552 19.6821 3.99715 19.6821 4.02974C19.6821 4.13119 19.6825 4.23264 19.6829 4.33409C19.6829 4.3971 19.683 4.46011 19.683 4.52312C19.6833 4.75564 19.6839 4.98817 19.6845 5.22069C19.6855 5.74083 19.6865 6.26096 19.6874 6.79686C20.8476 6.79686 22.0078 6.79686 23.2031 6.79686C23.2069 6.26802 23.2108 5.73919 23.2148 5.19432C23.2165 5.02857 23.2182 4.86281 23.22 4.69203C23.2206 4.54086 23.2206 4.54086 23.221 4.38968C23.2213 4.32338 23.2219 4.25707 23.2229 4.19078C23.2323 3.50992 23.1312 2.94696 22.6494 2.44225C22.2932 2.10186 21.8488 1.9517 21.3614 1.95885C20.9215 1.99308 20.5027 2.18512 20.1906 2.49663ZM0.796823 18.0469C0.729903 19.8614 0.729903 19.8614 1.53748 21.3234C2.07794 21.8398 2.69578 22.0472 3.4309 22.0425C3.4772 22.0426 3.5235 22.0427 3.5712 22.0428C3.72537 22.0429 3.87952 22.0424 4.03368 22.0419C4.14458 22.0419 4.25548 22.0419 4.36638 22.0419C4.66677 22.0419 4.96716 22.0414 5.26755 22.0407C5.54988 22.0402 5.8322 22.0401 6.11453 22.04C6.67349 22.0398 7.23246 22.0392 7.79142 22.0383C8.33419 22.0374 8.87696 22.0368 9.41973 22.0364C9.45322 22.0364 9.48671 22.0363 9.52122 22.0363C9.68926 22.0362 9.85729 22.0361 10.0253 22.036C11.4179 22.035 12.8105 22.0333 14.2031 22.0312C14.1837 22.0086 14.1643 21.986 14.1443 21.9627C14.1189 21.933 14.0935 21.9034 14.0673 21.8729C14.0421 21.8435 14.0169 21.8141 13.9909 21.7838C13.0331 20.6654 13.1202 19.5222 13.0781 18.0469C9.02526 18.0469 4.97245 18.0469 0.796823 18.0469Z" fill="#6B38B2"/>
<path d="M11.7467 3.86221C11.798 3.88727 11.8493 3.91233 11.9022 3.93815C11.9583 3.96622 12.0144 3.99432 12.0704 4.02243C12.1291 4.05139 12.1877 4.08031 12.2464 4.10919C12.3749 4.17253 12.5031 4.23626 12.6312 4.30025C12.821 4.395 13.0112 4.48883 13.2016 4.58251C13.3646 4.66282 13.5274 4.74343 13.6903 4.82413C13.7704 4.86381 13.8505 4.90343 13.9307 4.94297C14.0438 4.99881 14.1567 5.05503 14.2695 5.11136C14.3034 5.12803 14.3373 5.14471 14.3723 5.16189C14.73 5.34152 14.73 5.34152 14.7975 5.52288C14.8162 5.64933 14.8189 5.77119 14.8194 5.89907C14.8197 5.95433 14.82 6.0096 14.8203 6.06654C14.8204 6.15604 14.8204 6.15604 14.8205 6.24735C14.8206 6.3091 14.8208 6.37086 14.8209 6.43449C14.8212 6.56542 14.8213 6.69636 14.8213 6.8273C14.8213 6.99339 14.8219 7.15947 14.8227 7.32556C14.8232 7.45462 14.8233 7.58368 14.8233 7.71275C14.8234 7.80322 14.8239 7.89369 14.8244 7.98416C14.8223 8.82403 14.6525 9.53121 14.1563 10.2187C14.133 10.2513 14.1096 10.284 14.0855 10.3176C13.8607 10.6007 13.5661 10.7945 13.2702 10.9957C13.1651 11.0671 13.0606 11.1392 12.9561 11.2113C12.5991 11.4573 12.2404 11.7005 11.88 11.9414C11.8507 11.961 11.8214 11.9806 11.7912 12.0008C11.5764 12.1437 11.4651 12.2065 11.2032 12.1875C11.0943 12.1371 11.0943 12.1371 10.9835 12.0615C10.939 12.0316 10.8945 12.0017 10.8487 11.9709C10.795 11.9337 10.7413 11.8965 10.6876 11.8593C10.6193 11.8128 10.5509 11.7664 10.4825 11.72C10.3297 11.6161 10.1774 11.5117 10.0253 11.4069C9.87999 11.3068 9.73419 11.2075 9.58767 11.1092C8.81512 10.5895 8.21877 10.0242 7.96884 9.09372C7.88515 8.66344 7.86122 8.24514 7.86264 7.80759C7.86257 7.74491 7.86248 7.68224 7.86236 7.61956C7.86223 7.48957 7.86242 7.35958 7.86286 7.22959C7.8634 7.06342 7.86309 6.89727 7.86253 6.7311C7.86211 6.57137 7.8624 6.41165 7.86264 6.25192C7.86245 6.1925 7.86226 6.13308 7.86206 6.07185C7.86236 6.01659 7.86265 5.96133 7.86296 5.90439C7.86303 5.85595 7.86311 5.80751 7.86318 5.75761C7.88113 5.55759 7.92631 5.4311 8.07219 5.29215C8.21632 5.19418 8.36092 5.11865 8.51834 5.04379C8.56405 5.02186 8.56405 5.02186 8.61069 4.99949C8.67613 4.96814 8.74163 4.93691 8.80719 4.90581C8.98085 4.82344 9.15405 4.74012 9.3273 4.65689C9.38011 4.63157 9.38011 4.63157 9.43399 4.60573C9.84593 4.40781 10.2541 4.20238 10.662 3.99627C10.7128 3.97064 10.7637 3.94501 10.8161 3.91861C10.8827 3.8849 10.8827 3.8849 10.9507 3.85051C11.2421 3.71074 11.4591 3.72005 11.7467 3.86221ZM10.9964 4.75678C10.9204 4.79478 10.9204 4.79478 10.8429 4.83356C10.7885 4.86124 10.7341 4.88893 10.6781 4.91745C10.6216 4.94586 10.5651 4.97423 10.5086 5.00258C10.3602 5.07715 10.212 5.15217 10.0638 5.22729C9.9125 5.30391 9.76097 5.3801 9.60946 5.45633C9.31238 5.60588 9.01553 5.7559 8.71884 5.90622C8.71446 6.25709 8.71115 6.60796 8.70912 6.95885C8.70815 7.12185 8.70683 7.28482 8.70469 7.44781C8.70224 7.63585 8.70135 7.82388 8.70053 8.01193C8.69956 8.06952 8.69859 8.12712 8.69759 8.18645C8.69742 8.85886 8.93214 9.43182 9.37509 9.93747C9.46438 10.0091 9.55657 10.0771 9.65048 10.1425C9.69166 10.1714 9.69166 10.1714 9.73368 10.2009C10.0579 10.4271 10.3854 10.6489 10.7126 10.8707C10.7766 10.9141 10.7766 10.9141 10.8418 10.9583C10.8798 10.984 10.9179 11.0098 10.957 11.0363C11.0626 11.1093 11.0626 11.1093 11.1555 11.192C11.2478 11.2607 11.2478 11.2607 11.3642 11.2449C11.5022 11.1969 11.6026 11.134 11.7218 11.0493C11.789 11.002 11.789 11.002 11.8576 10.9537C11.9281 10.9031 11.9281 10.9031 12.0001 10.8515C12.0971 10.7829 12.1942 10.7142 12.2912 10.6455C12.3379 10.6123 12.3846 10.5791 12.4327 10.5449C12.5414 10.4681 12.6506 10.3924 12.7607 10.3178C12.7883 10.299 12.8159 10.2803 12.8444 10.261C12.9141 10.2139 12.9839 10.167 13.0537 10.12C13.5254 9.76586 13.8511 9.25159 13.9688 8.67185C13.9729 8.5802 13.9744 8.48842 13.9742 8.39668C13.9742 8.34133 13.9742 8.28597 13.9741 8.22894C13.9739 8.16941 13.9737 8.10989 13.9734 8.04855C13.9733 7.98743 13.9733 7.92631 13.9732 7.86334C13.973 7.7012 13.9726 7.53907 13.9721 7.37693C13.9716 7.21134 13.9714 7.04575 13.9711 6.88016C13.9706 6.55551 13.9698 6.23087 13.9688 5.90622C13.6423 5.74076 13.3155 5.57571 12.9884 5.41117C12.8366 5.33475 12.6848 5.2582 12.5332 5.18133C12.3869 5.10714 12.2404 5.03333 12.0937 4.95976C12.0106 4.91795 11.9277 4.87576 11.8448 4.83356C11.7941 4.80822 11.7434 4.78288 11.6912 4.75678C11.6467 4.73429 11.6021 4.71181 11.5562 4.68864C11.334 4.59863 11.1987 4.65469 10.9964 4.75678Z" fill="#6B38B2"/>
<path d="M7.18086 13.1597C7.21933 13.1595 7.25781 13.1593 7.29745 13.1591C7.42628 13.1587 7.55509 13.1588 7.68392 13.159C7.77632 13.1588 7.86872 13.1586 7.96113 13.1583C8.21206 13.1577 8.46299 13.1577 8.71393 13.1578C8.92338 13.1578 9.13283 13.1576 9.34228 13.1574C9.83638 13.1568 10.3305 13.1568 10.8246 13.1571C11.3344 13.1574 11.8442 13.1568 12.354 13.1558C12.7917 13.155 13.2294 13.1547 13.667 13.1549C13.9284 13.155 14.1899 13.1548 14.4513 13.1542C14.6971 13.1536 14.9429 13.1537 15.1887 13.1543C15.2789 13.1544 15.3691 13.1543 15.4594 13.1539C15.5825 13.1534 15.7057 13.1538 15.8288 13.1544C15.8645 13.154 15.9002 13.1537 15.9369 13.1533C16.1591 13.1556 16.3109 13.1958 16.5 13.3125C16.6011 13.4356 16.5937 13.5025 16.5908 13.6641C16.5367 13.8663 16.4894 13.9074 16.3125 14.0157C16.176 14.0337 16.0574 14.041 15.9211 14.0395C15.8818 14.0398 15.8425 14.0401 15.8021 14.0404C15.6705 14.0411 15.539 14.0405 15.4075 14.0399C15.3132 14.0402 15.2188 14.0405 15.1245 14.0409C14.8684 14.0418 14.6122 14.0414 14.356 14.0408C14.0881 14.0404 13.8201 14.0408 13.5522 14.0411C13.1021 14.0414 12.6521 14.041 12.2021 14.0401C11.6817 14.0391 11.1613 14.0394 10.6409 14.0404C10.1942 14.0413 9.74755 14.0414 9.30088 14.0409C9.03404 14.0406 8.7672 14.0406 8.50036 14.0412C8.2495 14.0418 7.99866 14.0414 7.7478 14.0403C7.65568 14.04 7.56356 14.0401 7.47144 14.0405C7.34579 14.041 7.22019 14.0404 7.09454 14.0395C7.03972 14.0401 7.03972 14.0401 6.98379 14.0407C6.8117 14.0382 6.71161 14.021 6.5644 13.9288C6.4407 13.7986 6.42188 13.7259 6.42188 13.5469C6.47681 13.3882 6.51142 13.2937 6.66118 13.2115C6.83547 13.1607 7.00098 13.1588 7.18086 13.1597Z" fill="#6B38B2"/>
<path d="M6.92144 14.987C6.95879 14.9872 6.99615 14.9873 7.03463 14.9874C7.09399 14.9871 7.09399 14.9871 7.15454 14.9868C7.28791 14.9862 7.42127 14.9863 7.55463 14.9864C7.64994 14.9861 7.74525 14.9858 7.84055 14.9854C8.10001 14.9846 8.35946 14.9844 8.61892 14.9843C8.83525 14.9842 9.05158 14.9839 9.26791 14.9835C9.77815 14.9828 10.2884 14.9825 10.7986 14.9826C11.3256 14.9827 11.8525 14.9817 12.3795 14.9802C12.8313 14.979 13.2832 14.9785 13.7351 14.9785C14.0052 14.9786 14.2753 14.9783 14.5454 14.9773C14.7994 14.9764 15.0534 14.9764 15.3075 14.9771C15.4008 14.9772 15.4942 14.9769 15.5875 14.9764C15.7147 14.9756 15.8419 14.9761 15.9691 14.9768C16.0062 14.9763 16.0434 14.9758 16.0816 14.9753C16.2457 14.9774 16.341 14.9864 16.4748 15.0851C16.5768 15.23 16.5907 15.3396 16.5938 15.5156C16.5307 15.6538 16.496 15.7285 16.3594 15.7969C16.2329 15.8018 16.1075 15.8038 15.981 15.8038C15.9414 15.8039 15.9019 15.8041 15.8611 15.8043C15.7277 15.8048 15.5944 15.805 15.461 15.8052C15.3657 15.8054 15.2704 15.8058 15.1751 15.8061C14.9156 15.8069 14.6562 15.8074 14.3967 15.8078C14.2347 15.808 14.0728 15.8083 13.9108 15.8086C13.4045 15.8095 12.8982 15.8102 12.3919 15.8106C11.8066 15.811 11.2214 15.8122 10.6362 15.8141C10.1843 15.8156 9.73241 15.8162 9.28054 15.8164C9.01042 15.8165 8.74031 15.8169 8.47019 15.8181C8.21618 15.8192 7.96218 15.8194 7.70817 15.8189C7.61482 15.8189 7.52147 15.8192 7.42812 15.8198C7.30091 15.8207 7.17375 15.8203 7.04654 15.8197C7.00939 15.8202 6.97225 15.8207 6.93398 15.8213C6.76888 15.8193 6.67476 15.8107 6.54085 15.7103C6.44667 15.5784 6.42518 15.49 6.42188 15.3281C6.54544 15.0692 6.63305 14.9896 6.92144 14.987Z" fill="#6B38B2"/>
<path d="M12.7031 6.79687C12.8436 6.89051 12.8812 6.95798 12.9375 7.11621C12.9375 7.42491 12.7176 7.64225 12.5108 7.85007C12.4652 7.89477 12.4652 7.89477 12.4188 7.94037C12.3871 7.97193 12.3555 8.0035 12.3228 8.03602C12.2563 8.10225 12.1896 8.1683 12.1227 8.23419C12.0203 8.33514 11.9184 8.43657 11.8166 8.53811C11.7517 8.60257 11.6868 8.66699 11.6219 8.73138C11.5914 8.76165 11.5609 8.79193 11.5295 8.82312C11.5011 8.85114 11.4726 8.87917 11.4433 8.90804C11.4183 8.93266 11.3934 8.95728 11.3677 8.98264C11.2173 9.11908 11.0942 9.17554 10.8893 9.17029C10.648 9.10404 10.4828 8.89225 10.3125 8.71875C10.2733 8.68177 10.2342 8.64479 10.1938 8.60669C9.81478 8.24485 9.81478 8.24485 9.75 8.01562C9.77666 7.84088 9.80621 7.7306 9.92285 7.59668C10.093 7.51852 10.172 7.51061 10.3594 7.54687C10.4886 7.646 10.6032 7.75265 10.7188 7.86731C10.8178 7.95918 10.8953 8.00636 11.0156 8.0625C11.0504 8.02749 11.0852 7.99248 11.121 7.95641C11.2501 7.82648 11.3793 7.6967 11.5086 7.56697C11.5645 7.51081 11.6204 7.45462 11.6762 7.39837C11.7565 7.31751 11.8369 7.23681 11.9174 7.15613C11.9423 7.13098 11.9672 7.10583 11.9929 7.07992C12.218 6.85473 12.377 6.74427 12.7031 6.79687Z" fill="#6B38B2"/>
</g>
<defs>
<clipPath id="clip0_1_12991">
<rect width="24" height="24" fill="white"/>
</clipPath>
</defs>
</svg>
